<svg width="32" height="32" viewBox="0 0 32 32" fill="none" xmlns="http://www.w3.org/2000/svg">
<path d="M30.5 16C30.5 24.0081 24.0081 30.5 16 30.5C7.99187 30.5 1.5 24.0081 1.5 16C1.5 7.99187 7.99187 1.5 16 1.5C24.0081 1.5 30.5 7.99187 30.5 16Z" fill="#00C44E" stroke="#00C44E" stroke-width="3"/>
<mask id="mask0_1:129" style="mask-type:alpha" maskUnits="userSpaceOnUse" x="0" y="0" width="32" height="32">
<path d="M32 16C32 24.8366 24.8366 32 16 32C7.16344 32 0 24.8366 0 16C0 7.16344 7.16344 0 16 0C24.8366 0 32 7.16344 32 16Z" fill="#4EF102"/>
</mask>
<g mask="url(#mask0_1:129)">
<path fill-rule="evenodd" clip-rule="evenodd" d="M9.41154 21C8.64174 21 8.16061 20.1667 8.54552 19.5L15.4737 7.5C15.8586 6.83333 16.8209 6.83334 17.2058 7.5L24.134 19.5C24.5189 20.1667 24.0377 21 23.2679 21L9.41154 21Z" fill="white"/>
</g>
</svg>
