<svg width="32" height="32" viewBox="0 0 32 32" fill="none" xmlns="http://www.w3.org/2000/svg">
<path d="M30.5 16C30.5 24.0081 24.0081 30.5 16 30.5C7.99187 30.5 1.5 24.0081 1.5 16C1.5 7.99187 7.99187 1.5 16 1.5C24.0081 1.5 30.5 7.99187 30.5 16Z" fill="#00C44E" stroke="#00C44E" stroke-width="3"/>
<mask id="mask0_1:116" style="mask-type:alpha" maskUnits="userSpaceOnUse" x="0" y="0" width="32" height="32">
<path d="M32 16C32 24.8366 24.8366 32 16 32C7.16344 32 0 24.8366 0 16C0 7.16344 7.16344 0 16 0C24.8366 0 32 7.16344 32 16Z" fill="#4EF102"/>
</mask>
<g mask="url(#mask0_1:116)">
<path fill-rule="evenodd" clip-rule="evenodd" d="M9.14789 17.4271C8.37839 17.4484 7.87431 16.6288 8.24055 15.9517L14.8329 3.76394C15.1991 3.08684 16.161 3.06012 16.5643 3.71585L23.823 15.5188C24.2263 16.1746 23.7685 17.0209 22.999 17.0423L18.5725 17.1653C18.0204 17.1806 17.5853 17.6406 17.6006 18.1927L18.143 37.7176C18.1583 38.2697 17.7232 38.7297 17.1711 38.745L16.1715 38.7728C15.6194 38.7881 15.1595 38.353 15.1441 37.8009L14.6018 18.276C14.5864 17.7239 14.1265 17.2888 13.5744 17.3041L9.14789 17.4271Z" fill="white"/>
</g>
</svg>
