<svg width="97" height="50" viewBox="0 0 97 50" fill="none" xmlns="http://www.w3.org/2000/svg">
<path d="M31.5457 15.7729C31.5457 24.484 24.484 31.5457 15.7729 31.5457C7.06175 31.5457 0 24.484 0 15.7729C0 7.06175 7.06175 0 15.7729 0C24.484 0 31.5457 7.06175 31.5457 15.7729Z" fill="#F1D302"/>
<path d="M30.205 50H23.3438C22.7445 50 22.3028 49.858 22.0189 49.5741C21.7666 49.3218 21.6404 48.8959 21.6404 48.2965V45.7413H15.1577C14.5584 45.7413 14.1167 45.6151 13.8328 45.3628C13.5804 45.0789 13.4543 44.6372 13.4543 44.0378V38.5016C13.4543 37.9022 13.5804 37.4763 13.8328 37.224C14.1167 36.9401 14.5584 36.7981 15.1577 36.7981H27.8864C28.2965 36.7981 28.5962 36.6719 28.7855 36.4196C29.0063 36.1356 29.1167 35.8044 29.1167 35.4259C29.1167 34.8896 29.0063 34.4953 28.7855 34.2429C28.5962 33.9905 28.2965 33.8486 27.8864 33.817L20.7886 32.8233C18.5804 32.5079 16.7981 31.7823 15.4416 30.6467C14.1167 29.511 13.4543 27.6183 13.4543 24.9684V20C13.4543 17.5394 14.1798 15.6151 15.6309 14.2271C17.082 12.8076 19.0852 11.9874 21.6404 11.7666V9.11671C21.6404 8.51734 21.7666 8.09147 22.0189 7.83911C22.3028 7.55519 22.7445 7.41324 23.3438 7.41324H30.205C30.8044 7.41324 31.2303 7.55519 31.4826 7.83911C31.7666 8.09147 31.9085 8.51734 31.9085 9.11671V11.6719H36.4984C37.0978 11.6719 37.5237 11.8139 37.776 12.0978C38.0599 12.3501 38.2019 12.776 38.2019 13.3754V19.0063C38.2019 19.6057 38.0599 20.0473 37.776 20.3312C37.5237 20.5836 37.0978 20.7098 36.4984 20.7098H25.4732C25.0631 20.7098 24.7476 20.8517 24.5268 21.1356C24.306 21.388 24.1956 21.7192 24.1956 22.1293C24.1956 22.5394 24.306 22.8864 24.5268 23.1703C24.7476 23.4543 25.0631 23.612 25.4732 23.6435L32.5237 24.5899C34.7319 24.9054 36.5142 25.6309 37.8707 26.7666C39.2271 27.9022 39.9054 29.7949 39.9054 32.4448V37.4132C39.9054 39.8107 39.1956 41.7192 37.776 43.1388C36.3565 44.5584 34.4006 45.3943 31.9085 45.6467V48.2965C31.9085 48.8959 31.7666 49.3218 31.4826 49.5741C31.2303 49.858 30.8044 50 30.205 50Z" fill="white"/>
<path d="M50.3785 31.2618L49.0442 35.5773H53.5016L52.1672 31.2618C52.0915 31.0915 52.0063 30.9685 51.9117 30.8927C51.836 30.817 51.7413 30.7792 51.6278 30.7792H50.918C50.8044 30.7792 50.7003 30.817 50.6057 30.8927C50.53 30.9685 50.4543 31.0915 50.3785 31.2618ZM48.7603 44.7192C48.7603 45.0789 48.6751 45.3438 48.5047 45.5142C48.3533 45.6656 48.0978 45.7413 47.7382 45.7413H43.5647C43.205 45.7413 42.9401 45.6656 42.7697 45.5142C42.6183 45.3438 42.5426 45.0789 42.5426 44.7192V37.224C42.5426 36.6561 42.6278 36.0032 42.7981 35.265C42.9874 34.5268 43.2713 33.6656 43.6498 32.6814L46.1199 26.2366C46.2334 25.9148 46.4038 25.6782 46.6309 25.5268C46.877 25.3754 47.1893 25.2997 47.5678 25.2997H55.205C55.5647 25.2997 55.858 25.3754 56.0852 25.5268C56.3312 25.6782 56.511 25.9148 56.6246 26.2366L59.0946 32.6814C59.4732 33.6656 59.7476 34.5268 59.918 35.265C60.1073 36.0032 60.2019 36.6561 60.2019 37.224V44.7192C60.2019 45.0789 60.1167 45.3438 59.9464 45.5142C59.795 45.6656 59.5394 45.7413 59.1798 45.7413H54.8927C54.5142 45.7413 54.2303 45.6656 54.041 45.5142C53.8707 45.3438 53.7855 45.0789 53.7855 44.7192V40.7445H48.7603V44.7192Z" fill="white"/>
<path d="M69.13 45.7413H64.7294C64.3698 45.7413 64.1048 45.6656 63.9344 45.5142C63.783 45.3438 63.7073 45.0789 63.7073 44.7192V26.3218C63.7073 25.9621 63.783 25.7066 63.9344 25.5552C64.1048 25.3849 64.3698 25.2997 64.7294 25.2997H77.3919C77.7515 25.2997 78.007 25.3849 78.1584 25.5552C78.3288 25.7066 78.4139 25.9621 78.4139 26.3218V29.7003C78.4139 30.0599 78.3288 30.3249 78.1584 30.4953C78.007 30.6467 77.7515 30.7224 77.3919 30.7224H70.1521V33.6751H75.0922C75.4518 33.6751 75.7073 33.7603 75.8587 33.9306C76.0291 34.082 76.1143 34.3375 76.1143 34.6972V38.1041C76.1143 38.4637 76.0291 38.7287 75.8587 38.8991C75.7073 39.0505 75.4518 39.1262 75.0922 39.1262H70.1521V44.7192C70.1521 45.0789 70.0669 45.3438 69.8966 45.5142C69.7452 45.6656 69.4896 45.7413 69.13 45.7413Z" fill="white"/>
<path d="M95.4533 45.7413H82.2798C81.9202 45.7413 81.6552 45.6656 81.4848 45.5142C81.3334 45.3438 81.2577 45.0789 81.2577 44.7192V26.3218C81.2577 25.9621 81.3334 25.7066 81.4848 25.5552C81.6552 25.3849 81.9202 25.2997 82.2798 25.2997H95.4533C95.8129 25.2997 96.0684 25.3849 96.2199 25.5552C96.3902 25.7066 96.4754 25.9621 96.4754 26.3218V29.6435C96.4754 30.0032 96.3902 30.2681 96.2199 30.4385C96.0684 30.5899 95.8129 30.6656 95.4533 30.6656H87.6173V32.8517H93.1536C93.5132 32.8517 93.7688 32.9369 93.9202 33.1073C94.0905 33.2587 94.1757 33.5142 94.1757 33.8738V36.9117C94.1757 37.2713 94.0905 37.5363 93.9202 37.7066C93.7688 37.858 93.5132 37.9338 93.1536 37.9338H87.6173V40.3754H95.4533C95.8129 40.3754 96.0684 40.4606 96.2199 40.6309C96.3902 40.7823 96.4754 41.0379 96.4754 41.3975V44.7192C96.4754 45.0789 96.3902 45.3438 96.2199 45.5142C96.0684 45.6656 95.8129 45.7413 95.4533 45.7413Z" fill="white"/>
</svg>
