<svg width="32" height="32" viewBox="0 0 32 32" fill="none" xmlns="http://www.w3.org/2000/svg">
<path d="M1.5 16C1.5 7.99187 7.99187 1.5 16 1.5C24.0081 1.5 30.5 7.99187 30.5 16C30.5 24.0081 24.0081 30.5 16 30.5C7.99187 30.5 1.5 24.0081 1.5 16Z" fill="#CE0000" stroke="#CE0000" stroke-width="3"/>
<mask id="mask0_1:125" style="mask-type:alpha" maskUnits="userSpaceOnUse" x="0" y="0" width="32" height="32">
<path d="M-1.39876e-06 16C-2.17128e-06 7.16345 7.16344 2.17128e-06 16 1.39876e-06C24.8366 6.26248e-07 32 7.16344 32 16C32 24.8366 24.8366 32 16 32C7.16344 32 -6.26248e-07 24.8366 -1.39876e-06 16Z" fill="#CE0000"/>
</mask>
<g mask="url(#mask0_1:125)">
<path fill-rule="evenodd" clip-rule="evenodd" d="M22.5885 11C23.3583 11 23.8394 11.8333 23.4545 12.5L16.5263 24.5C16.1414 25.1667 15.1791 25.1667 14.7942 24.5L7.86603 12.5C7.48113 11.8333 7.96225 11 8.73205 11L22.5885 11Z" fill="white"/>
</g>
</svg>
