<svg width="32" height="32" viewBox="0 0 32 32" fill="none" xmlns="http://www.w3.org/2000/svg">
<path d="M1.5 16C1.5 7.99187 7.99187 1.5 16 1.5C24.0081 1.5 30.5 7.99187 30.5 16C30.5 24.0081 24.0081 30.5 16 30.5C7.99187 30.5 1.5 24.0081 1.5 16Z" fill="#CE0000" stroke="#CE0000" stroke-width="3"/>
<mask id="mask0_1:120" style="mask-type:alpha" maskUnits="userSpaceOnUse" x="0" y="0" width="32" height="32">
<path d="M-1.39876e-06 16C-2.17128e-06 7.16345 7.16344 2.17128e-06 16 1.39876e-06C24.8366 6.26248e-07 32 7.16344 32 16C32 24.8366 24.8366 32 16 32C7.16344 32 -6.26248e-07 24.8366 -1.39876e-06 16Z" fill="#4EF102"/>
</mask>
<g mask="url(#mask0_1:120)">
<path fill-rule="evenodd" clip-rule="evenodd" d="M23.1803 14.5723C23.9498 14.5509 24.4539 15.3706 24.0877 16.0477L17.4954 28.2354C17.1291 28.9125 16.1672 28.9392 15.764 28.2835L8.50524 16.4805C8.10197 15.8248 8.55977 14.9784 9.32928 14.957L13.7558 14.8341C14.3078 14.8187 14.743 14.3588 14.7276 13.8067L14.1853 -5.71826C14.1699 -6.27034 14.605 -6.73031 15.1571 -6.74565L16.1567 -6.77341C16.7088 -6.78875 17.1688 -6.35364 17.1841 -5.80156L17.7265 13.7234C17.7418 14.2755 18.2018 14.7106 18.7538 14.6952L23.1803 14.5723Z" fill="white"/>
</g>
</svg>
