<svg width="32" height="32" viewBox="0 0 32 32" fill="none" xmlns="http://www.w3.org/2000/svg">
<path d="M32 16C32 24.8366 24.8366 32 16 32C7.16344 32 0 24.8366 0 16C0 7.16344 7.16344 0 16 0C24.8366 0 32 7.16344 32 16Z" fill="#F1D302"/>
<mask id="mask0_1:64" style="mask-type:alpha" maskUnits="userSpaceOnUse" x="0" y="0" width="32" height="32">
<path d="M32 16C32 24.8366 24.8366 32 16 32C7.16344 32 0 24.8366 0 16C0 7.16344 7.16344 0 16 0C24.8366 0 32 7.16344 32 16Z" fill="#F1D302"/>
</mask>
<g mask="url(#mask0_1:64)">
<path d="M18.2364 29.6712H13.8864C13.5064 29.6712 13.2264 29.5812 13.0464 29.4012C12.8864 29.2412 12.8064 28.9712 12.8064 28.5912V26.9712H8.6964C8.3164 26.9712 8.0364 26.8912 7.8564 26.7312C7.6964 26.5512 7.6164 26.2712 7.6164 25.8912V22.3812C7.6164 22.0012 7.6964 21.7312 7.8564 21.5712C8.0364 21.3912 8.3164 21.3012 8.6964 21.3012H16.7664C17.0264 21.3012 17.2164 21.2212 17.3364 21.0612C17.4764 20.8812 17.5464 20.6712 17.5464 20.4312C17.5464 20.0912 17.4764 19.8412 17.3364 19.6812C17.2164 19.5212 17.0264 19.4312 16.7664 19.4112L12.2664 18.7812C10.8664 18.5812 9.7364 18.1212 8.8764 17.4012C8.0364 16.6812 7.6164 15.4812 7.6164 13.8012V10.6512C7.6164 9.0912 8.0764 7.8712 8.9964 6.9912C9.9164 6.0912 11.1864 5.5712 12.8064 5.4312V3.7512C12.8064 3.3712 12.8864 3.1012 13.0464 2.9412C13.2264 2.7612 13.5064 2.6712 13.8864 2.6712H18.2364C18.6164 2.6712 18.8864 2.7612 19.0464 2.9412C19.2264 3.1012 19.3164 3.3712 19.3164 3.7512V5.3712H22.2264C22.6064 5.3712 22.8764 5.4612 23.0364 5.6412C23.2164 5.8012 23.3064 6.0712 23.3064 6.4512V10.0212C23.3064 10.4012 23.2164 10.6812 23.0364 10.8612C22.8764 11.0212 22.6064 11.1012 22.2264 11.1012H15.2364C14.9764 11.1012 14.7764 11.1912 14.6364 11.3712C14.4964 11.5312 14.4264 11.7412 14.4264 12.0012C14.4264 12.2612 14.4964 12.4812 14.6364 12.6612C14.7764 12.8412 14.9764 12.9412 15.2364 12.9612L19.7064 13.5612C21.1064 13.7612 22.2364 14.2212 23.0964 14.9412C23.9564 15.6612 24.3864 16.8612 24.3864 18.5412V21.6912C24.3864 23.2112 23.9364 24.4212 23.0364 25.3212C22.1364 26.2212 20.8964 26.7512 19.3164 26.9112V28.5912C19.3164 28.9712 19.2264 29.2412 19.0464 29.4012C18.8864 29.5812 18.6164 29.6712 18.2364 29.6712Z" fill="#0075C4"/>
</g>
</svg>
